  0
SECTION
  2
BLOCKS
  0
ENDSEC
  0
SECTION
  2
ENTITIES
  0
LINE
  8
0
 10
109.594
 20
108.254
 11
109.524
 21
108.624
  0
LINE
  8
0
 10
109.524
 20
108.624
 11
109.5
 21
109
  0
LINE
  8
0
 10
109.5
 20
109
 11
109.524
 21
109.376
  0
LINE
  8
0
 10
109.524
 20
109.376
 11
109.594
 21
109.746
  0
LINE
  8
0
 10
109.594
 20
109.746
 11
109.711
 21
110.104
  0
LINE
  8
0
 10
109.711
 20
110.104
 11
109.871
 21
110.445
  0
LINE
  8
0
 10
109.871
 20
110.445
 11
110.073
 21
110.763
  0
LINE
  8
0
 10
110.073
 20
110.763
 11
110.313
 21
111.054
  0
LINE
  8
0
 10
110.313
 20
111.054
 11
110.588
 21
111.312
  0
LINE
  8
0
 10
110.588
 20
111.312
 11
110.893
 21
111.533
  0
LINE
  8
0
 10
110.893
 20
111.533
 11
111.223
 21
111.714
  0
LINE
  8
0
 10
111.223
 20
111.714
 11
111.573
 21
111.853
  0
LINE
  8
0
 10
111.573
 20
111.853
 11
111.938
 21
111.947
  0
LINE
  8
0
 10
111.938
 20
111.947
 11
112.312
 21
111.994
  0
LINE
  8
0
 10
112.312
 20
111.994
 11
112.688
 21
111.994
  0
LINE
  8
0
 10
112.688
 20
111.994
 11
113.062
 21
111.947
  0
LINE
  8
0
 10
113.062
 20
111.947
 11
113.427
 21
111.853
  0
LINE
  8
0
 10
113.427
 20
111.853
 11
113.777
 21
111.714
  0
LINE
  8
0
 10
113.777
 20
111.714
 11
114.107
 21
111.533
  0
LINE
  8
0
 10
114.107
 20
111.533
 11
114.412
 21
111.312
  0
LINE
  8
0
 10
114.412
 20
111.312
 11
114.687
 21
111.054
  0
LINE
  8
0
 10
114.687
 20
111.054
 11
114.927
 21
110.763
  0
LINE
  8
0
 10
114.927
 20
110.763
 11
115.129
 21
110.445
  0
LINE
  8
0
 10
115.129
 20
110.445
 11
115.289
 21
110.104
  0
LINE
  8
0
 10
115.289
 20
110.104
 11
115.406
 21
109.746
  0
LINE
  8
0
 10
115.406
 20
109.746
 11
115.476
 21
109.376
  0
LINE
  8
0
 10
115.476
 20
109.376
 11
115.5
 21
109
  0
LINE
  8
0
 10
115.5
 20
109
 11
115.476
 21
108.624
  0
LINE
  8
0
 10
115.476
 20
108.624
 11
115.406
 21
108.254
  0
LINE
  8
0
 10
115.406
 20
108.254
 11
115.323
 21
108
  0
LINE
  8
0
 10
115.323
 20
108
 11
231
 21
108
  0
LINE
  8
0
 10
231
 20
108
 11
231
 21
339
  0
LINE
  8
0
 10
231
 20
339
 11
0
 21
339
  0
LINE
  8
0
 10
0
 20
339
 11
0
 21
108
  0
LINE
  8
0
 10
0
 20
108
 11
109.677
 21
108
  0
LINE
  8
0
 10
109.677
 20
108
 11
109.594
 21
108.254
  0
LINE
  8
0
 10
216
 20
296.25
 11
216
 21
299.25
  0
LINE
  8
0
 10
216
 20
299.25
 11
221.1
 21
299.25
  0
LINE
  8
0
 10
221.1
 20
299.25
 11
221.1
 21
296.25
  0
LINE
  8
0
 10
221.1
 20
296.25
 11
216
 21
296.25
  0
LINE
  8
0
 10
10
 20
296.25
 11
10
 21
299.25
  0
LINE
  8
0
 10
10
 20
299.25
 11
15.1
 21
299.25
  0
LINE
  8
0
 10
15.1
 20
299.25
 11
15.1
 21
296.25
  0
LINE
  8
0
 10
15.1
 20
296.25
 11
10
 21
296.25
  0
LINE
  8
0
 10
10
 20
279.75
 11
10
 21
282.75
  0
LINE
  8
0
 10
10
 20
282.75
 11
15.1
 21
282.75
  0
LINE
  8
0
 10
15.1
 20
282.75
 11
15.1
 21
279.75
  0
LINE
  8
0
 10
15.1
 20
279.75
 11
10
 21
279.75
  0
LINE
  8
0
 10
216
 20
279.75
 11
216
 21
282.75
  0
LINE
  8
0
 10
216
 20
282.75
 11
221.1
 21
282.75
  0
LINE
  8
0
 10
221.1
 20
282.75
 11
221.1
 21
279.75
  0
LINE
  8
0
 10
221.1
 20
279.75
 11
216
 21
279.75
  0
LINE
  8
0
 10
10
 20
263.25
 11
10
 21
266.25
  0
LINE
  8
0
 10
10
 20
266.25
 11
15.1
 21
266.25
  0
LINE
  8
0
 10
15.1
 20
266.25
 11
15.1
 21
263.25
  0
LINE
  8
0
 10
15.1
 20
263.25
 11
10
 21
263.25
  0
LINE
  8
0
 10
216
 20
263.25
 11
216
 21
266.25
  0
LINE
  8
0
 10
216
 20
266.25
 11
221.1
 21
266.25
  0
LINE
  8
0
 10
221.1
 20
266.25
 11
221.1
 21
263.25
  0
LINE
  8
0
 10
221.1
 20
263.25
 11
216
 21
263.25
  0
LINE
  8
0
 10
10
 20
246.75
 11
10
 21
249.75
  0
LINE
  8
0
 10
10
 20
249.75
 11
15.1
 21
249.75
  0
LINE
  8
0
 10
15.1
 20
249.75
 11
15.1
 21
246.75
  0
LINE
  8
0
 10
15.1
 20
246.75
 11
10
 21
246.75
  0
LINE
  8
0
 10
216
 20
246.75
 11
216
 21
249.75
  0
LINE
  8
0
 10
216
 20
249.75
 11
221.1
 21
249.75
  0
LINE
  8
0
 10
221.1
 20
249.75
 11
221.1
 21
246.75
  0
LINE
  8
0
 10
221.1
 20
246.75
 11
216
 21
246.75
  0
LINE
  8
0
 10
216
 20
230.25
 11
216
 21
233.25
  0
LINE
  8
0
 10
216
 20
233.25
 11
221.1
 21
233.25
  0
LINE
  8
0
 10
221.1
 20
233.25
 11
221.1
 21
230.25
  0
LINE
  8
0
 10
221.1
 20
230.25
 11
216
 21
230.25
  0
LINE
  8
0
 10
10
 20
230.25
 11
10
 21
233.25
  0
LINE
  8
0
 10
10
 20
233.25
 11
15.1
 21
233.25
  0
LINE
  8
0
 10
15.1
 20
233.25
 11
15.1
 21
230.25
  0
LINE
  8
0
 10
15.1
 20
230.25
 11
10
 21
230.25
  0
LINE
  8
0
 10
10
 20
213.75
 11
10
 21
216.75
  0
LINE
  8
0
 10
10
 20
216.75
 11
15.1
 21
216.75
  0
LINE
  8
0
 10
15.1
 20
216.75
 11
15.1
 21
213.75
  0
LINE
  8
0
 10
15.1
 20
213.75
 11
10
 21
213.75
  0
LINE
  8
0
 10
216
 20
213.75
 11
216
 21
216.75
  0
LINE
  8
0
 10
216
 20
216.75
 11
221.1
 21
216.75
  0
LINE
  8
0
 10
221.1
 20
216.75
 11
221.1
 21
213.75
  0
LINE
  8
0
 10
221.1
 20
213.75
 11
216
 21
213.75
  0
LINE
  8
0
 10
216
 20
197.25
 11
216
 21
200.25
  0
LINE
  8
0
 10
216
 20
200.25
 11
221.1
 21
200.25
  0
LINE
  8
0
 10
221.1
 20
200.25
 11
221.1
 21
197.25
  0
LINE
  8
0
 10
221.1
 20
197.25
 11
216
 21
197.25
  0
LINE
  8
0
 10
10
 20
197.25
 11
10
 21
200.25
  0
LINE
  8
0
 10
10
 20
200.25
 11
15.1
 21
200.25
  0
LINE
  8
0
 10
15.1
 20
200.25
 11
15.1
 21
197.25
  0
LINE
  8
0
 10
15.1
 20
197.25
 11
10
 21
197.25
  0
LINE
  8
0
 10
216
 20
180.75
 11
216
 21
183.75
  0
LINE
  8
0
 10
216
 20
183.75
 11
221.1
 21
183.75
  0
LINE
  8
0
 10
221.1
 20
183.75
 11
221.1
 21
180.75
  0
LINE
  8
0
 10
221.1
 20
180.75
 11
216
 21
180.75
  0
LINE
  8
0
 10
10
 20
180.75
 11
10
 21
183.75
  0
LINE
  8
0
 10
10
 20
183.75
 11
15.1
 21
183.75
  0
LINE
  8
0
 10
15.1
 20
183.75
 11
15.1
 21
180.75
  0
LINE
  8
0
 10
15.1
 20
180.75
 11
10
 21
180.75
  0
LINE
  8
0
 10
10
 20
164.25
 11
10
 21
167.25
  0
LINE
  8
0
 10
10
 20
167.25
 11
15.1
 21
167.25
  0
LINE
  8
0
 10
15.1
 20
167.25
 11
15.1
 21
164.25
  0
LINE
  8
0
 10
15.1
 20
164.25
 11
10
 21
164.25
  0
LINE
  8
0
 10
216
 20
164.25
 11
216
 21
167.25
  0
LINE
  8
0
 10
216
 20
167.25
 11
221.1
 21
167.25
  0
LINE
  8
0
 10
221.1
 20
167.25
 11
221.1
 21
164.25
  0
LINE
  8
0
 10
221.1
 20
164.25
 11
216
 21
164.25
  0
LINE
  8
0
 10
10
 20
147.75
 11
10
 21
150.75
  0
LINE
  8
0
 10
10
 20
150.75
 11
15.1
 21
150.75
  0
LINE
  8
0
 10
15.1
 20
150.75
 11
15.1
 21
147.75
  0
LINE
  8
0
 10
15.1
 20
147.75
 11
10
 21
147.75
  0
LINE
  8
0
 10
216
 20
147.75
 11
216
 21
150.75
  0
LINE
  8
0
 10
216
 20
150.75
 11
221.1
 21
150.75
  0
LINE
  8
0
 10
221.1
 20
150.75
 11
221.1
 21
147.75
  0
LINE
  8
0
 10
221.1
 20
147.75
 11
216
 21
147.75
  0
LINE
  8
0
 10
150.906
 20
136.503
 11
150.719
 21
136.527
  0
LINE
  8
0
 10
150.719
 20
136.527
 11
150.536
 21
136.573
  0
LINE
  8
0
 10
150.536
 20
136.573
 11
150.361
 21
136.643
  0
LINE
  8
0
 10
150.361
 20
136.643
 11
150.196
 21
136.734
  0
LINE
  8
0
 10
150.196
 20
136.734
 11
150.044
 21
136.844
  0
LINE
  8
0
 10
150.044
 20
136.844
 11
149.907
 21
136.973
  0
LINE
  8
0
 10
149.907
 20
136.973
 11
149.786
 21
137.118
  0
LINE
  8
0
 10
149.786
 20
137.118
 11
149.686
 21
137.277
  0
LINE
  8
0
 10
149.686
 20
137.277
 11
149.605
 21
137.448
  0
LINE
  8
0
 10
149.605
 20
137.448
 11
149.547
 21
137.627
  0
LINE
  8
0
 10
149.547
 20
137.627
 11
149.512
 21
137.812
  0
LINE
  8
0
 10
149.512
 20
137.812
 11
149.5
 21
138
  0
LINE
  8
0
 10
149.5
 20
138
 11
149.512
 21
138.188
  0
LINE
  8
0
 10
149.512
 20
138.188
 11
149.547
 21
138.373
  0
LINE
  8
0
 10
149.547
 20
138.373
 11
149.605
 21
138.552
  0
LINE
  8
0
 10
149.605
 20
138.552
 11
149.686
 21
138.723
  0
LINE
  8
0
 10
149.686
 20
138.723
 11
149.786
 21
138.882
  0
LINE
  8
0
 10
149.786
 20
138.882
 11
149.907
 21
139.027
  0
LINE
  8
0
 10
149.907
 20
139.027
 11
150.044
 21
139.156
  0
LINE
  8
0
 10
150.044
 20
139.156
 11
150.196
 21
139.266
  0
LINE
  8
0
 10
150.196
 20
139.266
 11
150.361
 21
139.357
  0
LINE
  8
0
 10
150.361
 20
139.357
 11
150.536
 21
139.427
  0
LINE
  8
0
 10
150.536
 20
139.427
 11
150.719
 21
139.473
  0
LINE
  8
0
 10
150.719
 20
139.473
 11
150.906
 21
139.497
  0
LINE
  8
0
 10
150.906
 20
139.497
 11
151.094
 21
139.497
  0
LINE
  8
0
 10
151.094
 20
139.497
 11
151.281
 21
139.473
  0
LINE
  8
0
 10
151.281
 20
139.473
 11
151.464
 21
139.427
  0
LINE
  8
0
 10
151.464
 20
139.427
 11
151.639
 21
139.357
  0
LINE
  8
0
 10
151.639
 20
139.357
 11
151.804
 21
139.266
  0
LINE
  8
0
 10
151.804
 20
139.266
 11
151.956
 21
139.156
  0
LINE
  8
0
 10
151.956
 20
139.156
 11
152.093
 21
139.027
  0
LINE
  8
0
 10
152.093
 20
139.027
 11
152.214
 21
138.882
  0
LINE
  8
0
 10
152.214
 20
138.882
 11
152.314
 21
138.723
  0
LINE
  8
0
 10
152.314
 20
138.723
 11
152.395
 21
138.552
  0
LINE
  8
0
 10
152.395
 20
138.552
 11
152.453
 21
138.373
  0
LINE
  8
0
 10
152.453
 20
138.373
 11
152.488
 21
138.188
  0
LINE
  8
0
 10
152.488
 20
138.188
 11
152.5
 21
138
  0
LINE
  8
0
 10
152.5
 20
138
 11
152.488
 21
137.812
  0
LINE
  8
0
 10
152.488
 20
137.812
 11
152.453
 21
137.627
  0
LINE
  8
0
 10
152.453
 20
137.627
 11
152.395
 21
137.448
  0
LINE
  8
0
 10
152.395
 20
137.448
 11
152.314
 21
137.277
  0
LINE
  8
0
 10
152.314
 20
137.277
 11
152.214
 21
137.118
  0
LINE
  8
0
 10
152.214
 20
137.118
 11
152.093
 21
136.973
  0
LINE
  8
0
 10
152.093
 20
136.973
 11
151.956
 21
136.844
  0
LINE
  8
0
 10
151.956
 20
136.844
 11
151.804
 21
136.734
  0
LINE
  8
0
 10
151.804
 20
136.734
 11
151.639
 21
136.643
  0
LINE
  8
0
 10
151.639
 20
136.643
 11
151.464
 21
136.573
  0
LINE
  8
0
 10
151.464
 20
136.573
 11
151.281
 21
136.527
  0
LINE
  8
0
 10
151.281
 20
136.527
 11
151.094
 21
136.503
  0
LINE
  8
0
 10
151.094
 20
136.503
 11
150.906
 21
136.503
  0
LINE
  8
0
 10
219.906
 20
136.503
 11
219.719
 21
136.527
  0
LINE
  8
0
 10
219.719
 20
136.527
 11
219.536
 21
136.573
  0
LINE
  8
0
 10
219.536
 20
136.573
 11
219.361
 21
136.643
  0
LINE
  8
0
 10
219.361
 20
136.643
 11
219.196
 21
136.734
  0
LINE
  8
0
 10
219.196
 20
136.734
 11
219.044
 21
136.844
  0
LINE
  8
0
 10
219.044
 20
136.844
 11
218.907
 21
136.973
  0
LINE
  8
0
 10
218.907
 20
136.973
 11
218.786
 21
137.118
  0
LINE
  8
0
 10
218.786
 20
137.118
 11
218.686
 21
137.277
  0
LINE
  8
0
 10
218.686
 20
137.277
 11
218.605
 21
137.448
  0
LINE
  8
0
 10
218.605
 20
137.448
 11
218.547
 21
137.627
  0
LINE
  8
0
 10
218.547
 20
137.627
 11
218.512
 21
137.812
  0
LINE
  8
0
 10
218.512
 20
137.812
 11
218.5
 21
138
  0
LINE
  8
0
 10
218.5
 20
138
 11
218.512
 21
138.188
  0
LINE
  8
0
 10
218.512
 20
138.188
 11
218.547
 21
138.373
  0
LINE
  8
0
 10
218.547
 20
138.373
 11
218.605
 21
138.552
  0
LINE
  8
0
 10
218.605
 20
138.552
 11
218.686
 21
138.723
  0
LINE
  8
0
 10
218.686
 20
138.723
 11
218.786
 21
138.882
  0
LINE
  8
0
 10
218.786
 20
138.882
 11
218.907
 21
139.027
  0
LINE
  8
0
 10
218.907
 20
139.027
 11
219.044
 21
139.156
  0
LINE
  8
0
 10
219.044
 20
139.156
 11
219.196
 21
139.266
  0
LINE
  8
0
 10
219.196
 20
139.266
 11
219.361
 21
139.357
  0
LINE
  8
0
 10
219.361
 20
139.357
 11
219.536
 21
139.427
  0
LINE
  8
0
 10
219.536
 20
139.427
 11
219.719
 21
139.473
  0
LINE
  8
0
 10
219.719
 20
139.473
 11
219.906
 21
139.497
  0
LINE
  8
0
 10
219.906
 20
139.497
 11
220.094
 21
139.497
  0
LINE
  8
0
 10
220.094
 20
139.497
 11
220.281
 21
139.473
  0
LINE
  8
0
 10
220.281
 20
139.473
 11
220.464
 21
139.427
  0
LINE
  8
0
 10
220.464
 20
139.427
 11
220.639
 21
139.357
  0
LINE
  8
0
 10
220.639
 20
139.357
 11
220.804
 21
139.266
  0
LINE
  8
0
 10
220.804
 20
139.266
 11
220.956
 21
139.156
  0
LINE
  8
0
 10
220.956
 20
139.156
 11
221.093
 21
139.027
  0
LINE
  8
0
 10
221.093
 20
139.027
 11
221.214
 21
138.882
  0
LINE
  8
0
 10
221.214
 20
138.882
 11
221.314
 21
138.723
  0
LINE
  8
0
 10
221.314
 20
138.723
 11
221.395
 21
138.552
  0
LINE
  8
0
 10
221.395
 20
138.552
 11
221.453
 21
138.373
  0
LINE
  8
0
 10
221.453
 20
138.373
 11
221.488
 21
138.188
  0
LINE
  8
0
 10
221.488
 20
138.188
 11
221.5
 21
138
  0
LINE
  8
0
 10
221.5
 20
138
 11
221.488
 21
137.812
  0
LINE
  8
0
 10
221.488
 20
137.812
 11
221.453
 21
137.627
  0
LINE
  8
0
 10
221.453
 20
137.627
 11
221.395
 21
137.448
  0
LINE
  8
0
 10
221.395
 20
137.448
 11
221.314
 21
137.277
  0
LINE
  8
0
 10
221.314
 20
137.277
 11
221.214
 21
137.118
  0
LINE
  8
0
 10
221.214
 20
137.118
 11
221.093
 21
136.973
  0
LINE
  8
0
 10
221.093
 20
136.973
 11
220.956
 21
136.844
  0
LINE
  8
0
 10
220.956
 20
136.844
 11
220.804
 21
136.734
  0
LINE
  8
0
 10
220.804
 20
136.734
 11
220.639
 21
136.643
  0
LINE
  8
0
 10
220.639
 20
136.643
 11
220.464
 21
136.573
  0
LINE
  8
0
 10
220.464
 20
136.573
 11
220.281
 21
136.527
  0
LINE
  8
0
 10
220.281
 20
136.527
 11
220.094
 21
136.503
  0
LINE
  8
0
 10
220.094
 20
136.503
 11
219.906
 21
136.503
  0
LINE
  8
0
 10
211.444
 20
134.654
 11
211.195
 21
134.685
  0
LINE
  8
0
 10
211.195
 20
134.685
 11
210.952
 21
134.748
  0
LINE
  8
0
 10
210.952
 20
134.748
 11
210.718
 21
134.84
  0
LINE
  8
0
 10
210.718
 20
134.84
 11
210.498
 21
134.961
  0
LINE
  8
0
 10
210.498
 20
134.961
 11
210.295
 21
135.109
  0
LINE
  8
0
 10
210.295
 20
135.109
 11
210.112
 21
135.281
  0
LINE
  8
0
 10
210.112
 20
135.281
 11
209.952
 21
135.474
  0
LINE
  8
0
 10
209.952
 20
135.474
 11
209.817
 21
135.686
  0
LINE
  8
0
 10
209.817
 20
135.686
 11
209.71
 21
135.914
  0
LINE
  8
0
 10
209.71
 20
135.914
 11
209.633
 21
136.153
  0
LINE
  8
0
 10
209.633
 20
136.153
 11
209.586
 21
136.399
  0
LINE
  8
0
 10
209.586
 20
136.399
 11
209.57
 21
136.65
  0
LINE
  8
0
 10
209.57
 20
136.65
 11
209.586
 21
136.901
  0
LINE
  8
0
 10
209.586
 20
136.901
 11
209.633
 21
137.147
  0
LINE
  8
0
 10
209.633
 20
137.147
 11
209.71
 21
137.386
  0
LINE
  8
0
 10
209.71
 20
137.386
 11
209.817
 21
137.613
  0
LINE
  8
0
 10
209.817
 20
137.613
 11
209.952
 21
137.826
  0
LINE
  8
0
 10
209.952
 20
137.826
 11
210.112
 21
138.019
  0
LINE
  8
0
 10
210.112
 20
138.019
 11
210.295
 21
138.191
  0
LINE
  8
0
 10
210.295
 20
138.191
 11
210.498
 21
138.339
  0
LINE
  8
0
 10
210.498
 20
138.339
 11
210.718
 21
138.46
  0
LINE
  8
0
 10
210.718
 20
138.46
 11
210.952
 21
138.552
  0
LINE
  8
0
 10
210.952
 20
138.552
 11
211.195
 21
138.615
  0
LINE
  8
0
 10
211.195
 20
138.615
 11
211.444
 21
138.646
  0
LINE
  8
0
 10
211.444
 20
138.646
 11
211.696
 21
138.646
  0
LINE
  8
0
 10
211.696
 20
138.646
 11
211.945
 21
138.615
  0
LINE
  8
0
 10
211.945
 20
138.615
 11
212.188
 21
138.552
  0
LINE
  8
0
 10
212.188
 20
138.552
 11
212.422
 21
138.46
  0
LINE
  8
0
 10
212.422
 20
138.46
 11
212.642
 21
138.339
  0
LINE
  8
0
 10
212.642
 20
138.339
 11
212.845
 21
138.191
  0
LINE
  8
0
 10
212.845
 20
138.191
 11
213.028
 21
138.019
  0
LINE
  8
0
 10
213.028
 20
138.019
 11
213.188
 21
137.826
  0
LINE
  8
0
 10
213.188
 20
137.826
 11
213.323
 21
137.613
  0
LINE
  8
0
 10
213.323
 20
137.613
 11
213.43
 21
137.386
  0
LINE
  8
0
 10
213.43
 20
137.386
 11
213.507
 21
137.147
  0
LINE
  8
0
 10
213.507
 20
137.147
 11
213.554
 21
136.901
  0
LINE
  8
0
 10
213.554
 20
136.901
 11
213.57
 21
136.65
  0
LINE
  8
0
 10
213.57
 20
136.65
 11
213.554
 21
136.399
  0
LINE
  8
0
 10
213.554
 20
136.399
 11
213.507
 21
136.153
  0
LINE
  8
0
 10
213.507
 20
136.153
 11
213.43
 21
135.914
  0
LINE
  8
0
 10
213.43
 20
135.914
 11
213.323
 21
135.686
  0
LINE
  8
0
 10
213.323
 20
135.686
 11
213.188
 21
135.474
  0
LINE
  8
0
 10
213.188
 20
135.474
 11
213.028
 21
135.281
  0
LINE
  8
0
 10
213.028
 20
135.281
 11
212.845
 21
135.109
  0
LINE
  8
0
 10
212.845
 20
135.109
 11
212.642
 21
134.961
  0
LINE
  8
0
 10
212.642
 20
134.961
 11
212.422
 21
134.84
  0
LINE
  8
0
 10
212.422
 20
134.84
 11
212.188
 21
134.748
  0
LINE
  8
0
 10
212.188
 20
134.748
 11
211.945
 21
134.685
  0
LINE
  8
0
 10
211.945
 20
134.685
 11
211.696
 21
134.654
  0
LINE
  8
0
 10
211.696
 20
134.654
 11
211.444
 21
134.654
  0
LINE
  8
0
 10
201.284
 20
134.654
 11
201.035
 21
134.685
  0
LINE
  8
0
 10
201.035
 20
134.685
 11
200.792
 21
134.748
  0
LINE
  8
0
 10
200.792
 20
134.748
 11
200.558
 21
134.84
  0
LINE
  8
0
 10
200.558
 20
134.84
 11
200.338
 21
134.961
  0
LINE
  8
0
 10
200.338
 20
134.961
 11
200.135
 21
135.109
  0
LINE
  8
0
 10
200.135
 20
135.109
 11
199.952
 21
135.281
  0
LINE
  8
0
 10
199.952
 20
135.281
 11
199.792
 21
135.474
  0
LINE
  8
0
 10
199.792
 20
135.474
 11
199.657
 21
135.686
  0
LINE
  8
0
 10
199.657
 20
135.686
 11
199.55
 21
135.914
  0
LINE
  8
0
 10
199.55
 20
135.914
 11
199.473
 21
136.153
  0
LINE
  8
0
 10
199.473
 20
136.153
 11
199.426
 21
136.399
  0
LINE
  8
0
 10
199.426
 20
136.399
 11
199.41
 21
136.65
  0
LINE
  8
0
 10
199.41
 20
136.65
 11
199.426
 21
136.901
  0
LINE
  8
0
 10
199.426
 20
136.901
 11
199.473
 21
137.147
  0
LINE
  8
0
 10
199.473
 20
137.147
 11
199.55
 21
137.386
  0
LINE
  8
0
 10
199.55
 20
137.386
 11
199.657
 21
137.613
  0
LINE
  8
0
 10
199.657
 20
137.613
 11
199.792
 21
137.826
  0
LINE
  8
0
 10
199.792
 20
137.826
 11
199.952
 21
138.019
  0
LINE
  8
0
 10
199.952
 20
138.019
 11
200.135
 21
138.191
  0
LINE
  8
0
 10
200.135
 20
138.191
 11
200.338
 21
138.339
  0
LINE
  8
0
 10
200.338
 20
138.339
 11
200.558
 21
138.46
  0
LINE
  8
0
 10
200.558
 20
138.46
 11
200.792
 21
138.552
  0
LINE
  8
0
 10
200.792
 20
138.552
 11
201.035
 21
138.615
  0
LINE
  8
0
 10
201.035
 20
138.615
 11
201.284
 21
138.646
  0
LINE
  8
0
 10
201.284
 20
138.646
 11
201.536
 21
138.646
  0
LINE
  8
0
 10
201.536
 20
138.646
 11
201.785
 21
138.615
  0
LINE
  8
0
 10
201.785
 20
138.615
 11
202.028
 21
138.552
  0
LINE
  8
0
 10
202.028
 20
138.552
 11
202.262
 21
138.46
  0
LINE
  8
0
 10
202.262
 20
138.46
 11
202.482
 21
138.339
  0
LINE
  8
0
 10
202.482
 20
138.339
 11
202.685
 21
138.191
  0
LINE
  8
0
 10
202.685
 20
138.191
 11
202.868
 21
138.019
  0
LINE
  8
0
 10
202.868
 20
138.019
 11
203.028
 21
137.826
  0
LINE
  8
0
 10
203.028
 20
137.826
 11
203.163
 21
137.613
  0
LINE
  8
0
 10
203.163
 20
137.613
 11
203.27
 21
137.386
  0
LINE
  8
0
 10
203.27
 20
137.386
 11
203.347
 21
137.147
  0
LINE
  8
0
 10
203.347
 20
137.147
 11
203.394
 21
136.901
  0
LINE
  8
0
 10
203.394
 20
136.901
 11
203.41
 21
136.65
  0
LINE
  8
0
 10
203.41
 20
136.65
 11
203.394
 21
136.399
  0
LINE
  8
0
 10
203.394
 20
136.399
 11
203.347
 21
136.153
  0
LINE
  8
0
 10
203.347
 20
136.153
 11
203.27
 21
135.914
  0
LINE
  8
0
 10
203.27
 20
135.914
 11
203.163
 21
135.686
  0
LINE
  8
0
 10
203.163
 20
135.686
 11
203.028
 21
135.474
  0
LINE
  8
0
 10
203.028
 20
135.474
 11
202.868
 21
135.281
  0
LINE
  8
0
 10
202.868
 20
135.281
 11
202.685
 21
135.109
  0
LINE
  8
0
 10
202.685
 20
135.109
 11
202.482
 21
134.961
  0
LINE
  8
0
 10
202.482
 20
134.961
 11
202.262
 21
134.84
  0
LINE
  8
0
 10
202.262
 20
134.84
 11
202.028
 21
134.748
  0
LINE
  8
0
 10
202.028
 20
134.748
 11
201.785
 21
134.685
  0
LINE
  8
0
 10
201.785
 20
134.685
 11
201.536
 21
134.654
  0
LINE
  8
0
 10
201.536
 20
134.654
 11
201.284
 21
134.654
  0
LINE
  8
0
 10
150.906
 20
112.503
 11
150.719
 21
112.527
  0
LINE
  8
0
 10
150.719
 20
112.527
 11
150.536
 21
112.573
  0
LINE
  8
0
 10
150.536
 20
112.573
 11
150.361
 21
112.643
  0
LINE
  8
0
 10
150.361
 20
112.643
 11
150.196
 21
112.734
  0
LINE
  8
0
 10
150.196
 20
112.734
 11
150.044
 21
112.844
  0
LINE
  8
0
 10
150.044
 20
112.844
 11
149.907
 21
112.973
  0
LINE
  8
0
 10
149.907
 20
112.973
 11
149.786
 21
113.118
  0
LINE
  8
0
 10
149.786
 20
113.118
 11
149.686
 21
113.277
  0
LINE
  8
0
 10
149.686
 20
113.277
 11
149.605
 21
113.448
  0
LINE
  8
0
 10
149.605
 20
113.448
 11
149.547
 21
113.627
  0
LINE
  8
0
 10
149.547
 20
113.627
 11
149.512
 21
113.812
  0
LINE
  8
0
 10
149.512
 20
113.812
 11
149.5
 21
114
  0
LINE
  8
0
 10
149.5
 20
114
 11
149.512
 21
114.188
  0
LINE
  8
0
 10
149.512
 20
114.188
 11
149.547
 21
114.373
  0
LINE
  8
0
 10
149.547
 20
114.373
 11
149.605
 21
114.552
  0
LINE
  8
0
 10
149.605
 20
114.552
 11
149.686
 21
114.723
  0
LINE
  8
0
 10
149.686
 20
114.723
 11
149.786
 21
114.882
  0
LINE
  8
0
 10
149.786
 20
114.882
 11
149.907
 21
115.027
  0
LINE
  8
0
 10
149.907
 20
115.027
 11
150.044
 21
115.156
  0
LINE
  8
0
 10
150.044
 20
115.156
 11
150.196
 21
115.266
  0
LINE
  8
0
 10
150.196
 20
115.266
 11
150.361
 21
115.357
  0
LINE
  8
0
 10
150.361
 20
115.357
 11
150.536
 21
115.427
  0
LINE
  8
0
 10
150.536
 20
115.427
 11
150.719
 21
115.473
  0
LINE
  8
0
 10
150.719
 20
115.473
 11
150.906
 21
115.497
  0
LINE
  8
0
 10
150.906
 20
115.497
 11
151.094
 21
115.497
  0
LINE
  8
0
 10
151.094
 20
115.497
 11
151.281
 21
115.473
  0
LINE
  8
0
 10
151.281
 20
115.473
 11
151.464
 21
115.427
  0
LINE
  8
0
 10
151.464
 20
115.427
 11
151.639
 21
115.357
  0
LINE
  8
0
 10
151.639
 20
115.357
 11
151.804
 21
115.266
  0
LINE
  8
0
 10
151.804
 20
115.266
 11
151.956
 21
115.156
  0
LINE
  8
0
 10
151.956
 20
115.156
 11
152.093
 21
115.027
  0
LINE
  8
0
 10
152.093
 20
115.027
 11
152.214
 21
114.882
  0
LINE
  8
0
 10
152.214
 20
114.882
 11
152.314
 21
114.723
  0
LINE
  8
0
 10
152.314
 20
114.723
 11
152.395
 21
114.552
  0
LINE
  8
0
 10
152.395
 20
114.552
 11
152.453
 21
114.373
  0
LINE
  8
0
 10
152.453
 20
114.373
 11
152.488
 21
114.188
  0
LINE
  8
0
 10
152.488
 20
114.188
 11
152.5
 21
114
  0
LINE
  8
0
 10
152.5
 20
114
 11
152.488
 21
113.812
  0
LINE
  8
0
 10
152.488
 20
113.812
 11
152.453
 21
113.627
  0
LINE
  8
0
 10
152.453
 20
113.627
 11
152.395
 21
113.448
  0
LINE
  8
0
 10
152.395
 20
113.448
 11
152.314
 21
113.277
  0
LINE
  8
0
 10
152.314
 20
113.277
 11
152.214
 21
113.118
  0
LINE
  8
0
 10
152.214
 20
113.118
 11
152.093
 21
112.973
  0
LINE
  8
0
 10
152.093
 20
112.973
 11
151.956
 21
112.844
  0
LINE
  8
0
 10
151.956
 20
112.844
 11
151.804
 21
112.734
  0
LINE
  8
0
 10
151.804
 20
112.734
 11
151.639
 21
112.643
  0
LINE
  8
0
 10
151.639
 20
112.643
 11
151.464
 21
112.573
  0
LINE
  8
0
 10
151.464
 20
112.573
 11
151.281
 21
112.527
  0
LINE
  8
0
 10
151.281
 20
112.527
 11
151.094
 21
112.503
  0
LINE
  8
0
 10
151.094
 20
112.503
 11
150.906
 21
112.503
  0
LINE
  8
0
 10
219.906
 20
112.503
 11
219.719
 21
112.527
  0
LINE
  8
0
 10
219.719
 20
112.527
 11
219.536
 21
112.573
  0
LINE
  8
0
 10
219.536
 20
112.573
 11
219.361
 21
112.643
  0
LINE
  8
0
 10
219.361
 20
112.643
 11
219.196
 21
112.734
  0
LINE
  8
0
 10
219.196
 20
112.734
 11
219.044
 21
112.844
  0
LINE
  8
0
 10
219.044
 20
112.844
 11
218.907
 21
112.973
  0
LINE
  8
0
 10
218.907
 20
112.973
 11
218.786
 21
113.118
  0
LINE
  8
0
 10
218.786
 20
113.118
 11
218.686
 21
113.277
  0
LINE
  8
0
 10
218.686
 20
113.277
 11
218.605
 21
113.448
  0
LINE
  8
0
 10
218.605
 20
113.448
 11
218.547
 21
113.627
  0
LINE
  8
0
 10
218.547
 20
113.627
 11
218.512
 21
113.812
  0
LINE
  8
0
 10
218.512
 20
113.812
 11
218.5
 21
114
  0
LINE
  8
0
 10
218.5
 20
114
 11
218.512
 21
114.188
  0
LINE
  8
0
 10
218.512
 20
114.188
 11
218.547
 21
114.373
  0
LINE
  8
0
 10
218.547
 20
114.373
 11
218.605
 21
114.552
  0
LINE
  8
0
 10
218.605
 20
114.552
 11
218.686
 21
114.723
  0
LINE
  8
0
 10
218.686
 20
114.723
 11
218.786
 21
114.882
  0
LINE
  8
0
 10
218.786
 20
114.882
 11
218.907
 21
115.027
  0
LINE
  8
0
 10
218.907
 20
115.027
 11
219.044
 21
115.156
  0
LINE
  8
0
 10
219.044
 20
115.156
 11
219.196
 21
115.266
  0
LINE
  8
0
 10
219.196
 20
115.266
 11
219.361
 21
115.357
  0
LINE
  8
0
 10
219.361
 20
115.357
 11
219.536
 21
115.427
  0
LINE
  8
0
 10
219.536
 20
115.427
 11
219.719
 21
115.473
  0
LINE
  8
0
 10
219.719
 20
115.473
 11
219.906
 21
115.497
  0
LINE
  8
0
 10
219.906
 20
115.497
 11
220.094
 21
115.497
  0
LINE
  8
0
 10
220.094
 20
115.497
 11
220.281
 21
115.473
  0
LINE
  8
0
 10
220.281
 20
115.473
 11
220.464
 21
115.427
  0
LINE
  8
0
 10
220.464
 20
115.427
 11
220.639
 21
115.357
  0
LINE
  8
0
 10
220.639
 20
115.357
 11
220.804
 21
115.266
  0
LINE
  8
0
 10
220.804
 20
115.266
 11
220.956
 21
115.156
  0
LINE
  8
0
 10
220.956
 20
115.156
 11
221.093
 21
115.027
  0
LINE
  8
0
 10
221.093
 20
115.027
 11
221.214
 21
114.882
  0
LINE
  8
0
 10
221.214
 20
114.882
 11
221.314
 21
114.723
  0
LINE
  8
0
 10
221.314
 20
114.723
 11
221.395
 21
114.552
  0
LINE
  8
0
 10
221.395
 20
114.552
 11
221.453
 21
114.373
  0
LINE
  8
0
 10
221.453
 20
114.373
 11
221.488
 21
114.188
  0
LINE
  8
0
 10
221.488
 20
114.188
 11
221.5
 21
114
  0
LINE
  8
0
 10
221.5
 20
114
 11
221.488
 21
113.812
  0
LINE
  8
0
 10
221.488
 20
113.812
 11
221.453
 21
113.627
  0
LINE
  8
0
 10
221.453
 20
113.627
 11
221.395
 21
113.448
  0
LINE
  8
0
 10
221.395
 20
113.448
 11
221.314
 21
113.277
  0
LINE
  8
0
 10
221.314
 20
113.277
 11
221.214
 21
113.118
  0
LINE
  8
0
 10
221.214
 20
113.118
 11
221.093
 21
112.973
  0
LINE
  8
0
 10
221.093
 20
112.973
 11
220.956
 21
112.844
  0
LINE
  8
0
 10
220.956
 20
112.844
 11
220.804
 21
112.734
  0
LINE
  8
0
 10
220.804
 20
112.734
 11
220.639
 21
112.643
  0
LINE
  8
0
 10
220.639
 20
112.643
 11
220.464
 21
112.573
  0
LINE
  8
0
 10
220.464
 20
112.573
 11
220.281
 21
112.527
  0
LINE
  8
0
 10
220.281
 20
112.527
 11
220.094
 21
112.503
  0
LINE
  8
0
 10
220.094
 20
112.503
 11
219.906
 21
112.503
  0
LINE
  8
0
 10
39.75
 20
87.5
 11
42.75
 21
87.5
  0
LINE
  8
0
 10
42.75
 20
87.5
 11
42.75
 21
72
  0
LINE
  8
0
 10
42.75
 20
72
 11
56.25
 21
72
  0
LINE
  8
0
 10
56.25
 20
72
 11
56.25
 21
87.5
  0
LINE
  8
0
 10
56.25
 20
87.5
 11
59.25
 21
87.5
  0
LINE
  8
0
 10
59.25
 20
87.5
 11
59.25
 21
72
  0
LINE
  8
0
 10
59.25
 20
72
 11
72.75
 21
72
  0
LINE
  8
0
 10
72.75
 20
72
 11
72.75
 21
87.5
  0
LINE
  8
0
 10
72.75
 20
87.5
 11
75.75
 21
87.5
  0
LINE
  8
0
 10
75.75
 20
87.5
 11
75.75
 21
72
  0
LINE
  8
0
 10
75.75
 20
72
 11
89.25
 21
72
  0
LINE
  8
0
 10
89.25
 20
72
 11
89.25
 21
87.5
  0
LINE
  8
0
 10
89.25
 20
87.5
 11
92.25
 21
87.5
  0
LINE
  8
0
 10
92.25
 20
87.5
 11
92.25
 21
72
  0
LINE
  8
0
 10
92.25
 20
72
 11
105.75
 21
72
  0
LINE
  8
0
 10
105.75
 20
72
 11
105.75
 21
87.5
  0
LINE
  8
0
 10
105.75
 20
87.5
 11
108.75
 21
87.5
  0
LINE
  8
0
 10
108.75
 20
87.5
 11
108.75
 21
72
  0
LINE
  8
0
 10
108.75
 20
72
 11
122.25
 21
72
  0
LINE
  8
0
 10
122.25
 20
72
 11
122.25
 21
87.5
  0
LINE
  8
0
 10
122.25
 20
87.5
 11
125.25
 21
87.5
  0
LINE
  8
0
 10
125.25
 20
87.5
 11
125.25
 21
72
  0
LINE
  8
0
 10
125.25
 20
72
 11
138.75
 21
72
  0
LINE
  8
0
 10
138.75
 20
72
 11
138.75
 21
87.5
  0
LINE
  8
0
 10
138.75
 20
87.5
 11
141.75
 21
87.5
  0
LINE
  8
0
 10
141.75
 20
87.5
 11
141.75
 21
72
  0
LINE
  8
0
 10
141.75
 20
72
 11
155.25
 21
72
  0
LINE
  8
0
 10
155.25
 20
72
 11
155.25
 21
87.5
  0
LINE
  8
0
 10
155.25
 20
87.5
 11
158.25
 21
87.5
  0
LINE
  8
0
 10
158.25
 20
87.5
 11
158.25
 21
72
  0
LINE
  8
0
 10
158.25
 20
72
 11
171.75
 21
72
  0
LINE
  8
0
 10
171.75
 20
72
 11
171.75
 21
87.5
  0
LINE
  8
0
 10
171.75
 20
87.5
 11
174.75
 21
87.5
  0
LINE
  8
0
 10
174.75
 20
87.5
 11
174.75
 21
72
  0
LINE
  8
0
 10
174.75
 20
72
 11
188.25
 21
72
  0
LINE
  8
0
 10
188.25
 20
72
 11
188.25
 21
87.5
  0
LINE
  8
0
 10
188.25
 20
87.5
 11
191.25
 21
87.5
  0
LINE
  8
0
 10
191.25
 20
87.5
 11
191.25
 21
72
  0
LINE
  8
0
 10
191.25
 20
72
 11
231
 21
72
  0
LINE
  8
0
 10
231
 20
72
 11
231
 21
102
  0
LINE
  8
0
 10
231
 20
102
 11
0
 21
102
  0
LINE
  8
0
 10
0
 20
102
 11
0
 21
94
  0
LINE
  8
0
 10
0
 20
94
 11
37
 21
94
  0
LINE
  8
0
 10
37
 20
94
 11
37
 21
72
  0
LINE
  8
0
 10
37
 20
72
 11
39.75
 21
72
  0
LINE
  8
0
 10
39.75
 20
72
 11
39.75
 21
87.5
  0
LINE
  8
0
 10
39.75
 20
51.5
 11
42.75
 21
51.5
  0
LINE
  8
0
 10
42.75
 20
51.5
 11
42.75
 21
36
  0
LINE
  8
0
 10
42.75
 20
36
 11
56.25
 21
36
  0
LINE
  8
0
 10
56.25
 20
36
 11
56.25
 21
51.5
  0
LINE
  8
0
 10
56.25
 20
51.5
 11
59.25
 21
51.5
  0
LINE
  8
0
 10
59.25
 20
51.5
 11
59.25
 21
36
  0
LINE
  8
0
 10
59.25
 20
36
 11
72.75
 21
36
  0
LINE
  8
0
 10
72.75
 20
36
 11
72.75
 21
51.5
  0
LINE
  8
0
 10
72.75
 20
51.5
 11
75.75
 21
51.5
  0
LINE
  8
0
 10
75.75
 20
51.5
 11
75.75
 21
36
  0
LINE
  8
0
 10
75.75
 20
36
 11
89.25
 21
36
  0
LINE
  8
0
 10
89.25
 20
36
 11
89.25
 21
51.5
  0
LINE
  8
0
 10
89.25
 20
51.5
 11
92.25
 21
51.5
  0
LINE
  8
0
 10
92.25
 20
51.5
 11
92.25
 21
36
  0
LINE
  8
0
 10
92.25
 20
36
 11
105.75
 21
36
  0
LINE
  8
0
 10
105.75
 20
36
 11
105.75
 21
51.5
  0
LINE
  8
0
 10
105.75
 20
51.5
 11
108.75
 21
51.5
  0
LINE
  8
0
 10
108.75
 20
51.5
 11
108.75
 21
36
  0
LINE
  8
0
 10
108.75
 20
36
 11
122.25
 21
36
  0
LINE
  8
0
 10
122.25
 20
36
 11
122.25
 21
51.5
  0
LINE
  8
0
 10
122.25
 20
51.5
 11
125.25
 21
51.5
  0
LINE
  8
0
 10
125.25
 20
51.5
 11
125.25
 21
36
  0
LINE
  8
0
 10
125.25
 20
36
 11
138.75
 21
36
  0
LINE
  8
0
 10
138.75
 20
36
 11
138.75
 21
51.5
  0
LINE
  8
0
 10
138.75
 20
51.5
 11
141.75
 21
51.5
  0
LINE
  8
0
 10
141.75
 20
51.5
 11
141.75
 21
36
  0
LINE
  8
0
 10
141.75
 20
36
 11
155.25
 21
36
  0
LINE
  8
0
 10
155.25
 20
36
 11
155.25
 21
51.5
  0
LINE
  8
0
 10
155.25
 20
51.5
 11
158.25
 21
51.5
  0
LINE
  8
0
 10
158.25
 20
51.5
 11
158.25
 21
36
  0
LINE
  8
0
 10
158.25
 20
36
 11
171.75
 21
36
  0
LINE
  8
0
 10
171.75
 20
36
 11
171.75
 21
51.5
  0
LINE
  8
0
 10
171.75
 20
51.5
 11
174.75
 21
51.5
  0
LINE
  8
0
 10
174.75
 20
51.5
 11
174.75
 21
36
  0
LINE
  8
0
 10
174.75
 20
36
 11
188.25
 21
36
  0
LINE
  8
0
 10
188.25
 20
36
 11
188.25
 21
51.5
  0
LINE
  8
0
 10
188.25
 20
51.5
 11
191.25
 21
51.5
  0
LINE
  8
0
 10
191.25
 20
51.5
 11
191.25
 21
36
  0
LINE
  8
0
 10
191.25
 20
36
 11
231
 21
36
  0
LINE
  8
0
 10
231
 20
36
 11
231
 21
66
  0
LINE
  8
0
 10
231
 20
66
 11
0
 21
66
  0
LINE
  8
0
 10
0
 20
66
 11
0
 21
36
  0
LINE
  8
0
 10
0
 20
36
 11
39.75
 21
36
  0
LINE
  8
0
 10
39.75
 20
36
 11
39.75
 21
51.5
  0
LINE
  8
0
 10
39.75
 20
15.5
 11
42.75
 21
15.5
  0
LINE
  8
0
 10
42.75
 20
15.5
 11
42.75
 21
0
  0
LINE
  8
0
 10
42.75
 20
0
 11
56.25
 21
0
  0
LINE
  8
0
 10
56.25
 20
0
 11
56.25
 21
15.5
  0
LINE
  8
0
 10
56.25
 20
15.5
 11
59.25
 21
15.5
  0
LINE
  8
0
 10
59.25
 20
15.5
 11
59.25
 21
0
  0
LINE
  8
0
 10
59.25
 20
0
 11
72.75
 21
0
  0
LINE
  8
0
 10
72.75
 20
0
 11
72.75
 21
15.5
  0
LINE
  8
0
 10
72.75
 20
15.5
 11
75.75
 21
15.5
  0
LINE
  8
0
 10
75.75
 20
15.5
 11
75.75
 21
0
  0
LINE
  8
0
 10
75.75
 20
0
 11
89.25
 21
0
  0
LINE
  8
0
 10
89.25
 20
0
 11
89.25
 21
15.5
  0
LINE
  8
0
 10
89.25
 20
15.5
 11
92.25
 21
15.5
  0
LINE
  8
0
 10
92.25
 20
15.5
 11
92.25
 21
0
  0
LINE
  8
0
 10
92.25
 20
0
 11
105.75
 21
0
  0
LINE
  8
0
 10
105.75
 20
0
 11
105.75
 21
15.5
  0
LINE
  8
0
 10
105.75
 20
15.5
 11
108.75
 21
15.5
  0
LINE
  8
0
 10
108.75
 20
15.5
 11
108.75
 21
0
  0
LINE
  8
0
 10
108.75
 20
0
 11
122.25
 21
0
  0
LINE
  8
0
 10
122.25
 20
0
 11
122.25
 21
15.5
  0
LINE
  8
0
 10
122.25
 20
15.5
 11
125.25
 21
15.5
  0
LINE
  8
0
 10
125.25
 20
15.5
 11
125.25
 21
0
  0
LINE
  8
0
 10
125.25
 20
0
 11
138.75
 21
0
  0
LINE
  8
0
 10
138.75
 20
0
 11
138.75
 21
15.5
  0
LINE
  8
0
 10
138.75
 20
15.5
 11
141.75
 21
15.5
  0
LINE
  8
0
 10
141.75
 20
15.5
 11
141.75
 21
0
  0
LINE
  8
0
 10
141.75
 20
0
 11
155.25
 21
0
  0
LINE
  8
0
 10
155.25
 20
0
 11
155.25
 21
15.5
  0
LINE
  8
0
 10
155.25
 20
15.5
 11
158.25
 21
15.5
  0
LINE
  8
0
 10
158.25
 20
15.5
 11
158.25
 21
0
  0
LINE
  8
0
 10
158.25
 20
0
 11
171.75
 21
0
  0
LINE
  8
0
 10
171.75
 20
0
 11
171.75
 21
15.5
  0
LINE
  8
0
 10
171.75
 20
15.5
 11
174.75
 21
15.5
  0
LINE
  8
0
 10
174.75
 20
15.5
 11
174.75
 21
0
  0
LINE
  8
0
 10
174.75
 20
0
 11
188.25
 21
0
  0
LINE
  8
0
 10
188.25
 20
0
 11
188.25
 21
15.5
  0
LINE
  8
0
 10
188.25
 20
15.5
 11
191.25
 21
15.5
  0
LINE
  8
0
 10
191.25
 20
15.5
 11
191.25
 21
0
  0
LINE
  8
0
 10
191.25
 20
0
 11
231
 21
0
  0
LINE
  8
0
 10
231
 20
0
 11
231
 21
30
  0
LINE
  8
0
 10
231
 20
30
 11
221
 21
30
  0
LINE
  8
0
 10
221
 20
30
 11
221
 21
32.9
  0
LINE
  8
0
 10
221
 20
32.9
 11
216
 21
32.9
  0
LINE
  8
0
 10
216
 20
32.9
 11
216
 21
30
  0
LINE
  8
0
 10
216
 20
30
 11
24.875
 21
30
  0
LINE
  8
0
 10
24.875
 20
30
 11
24.875
 21
25
  0
LINE
  8
0
 10
24.875
 20
25
 11
19.875
 21
25
  0
LINE
  8
0
 10
19.875
 20
25
 11
19.875
 21
30
  0
LINE
  8
0
 10
19.875
 20
30
 11
15
 21
30
  0
LINE
  8
0
 10
15
 20
30
 11
15
 21
32.9
  0
LINE
  8
0
 10
15
 20
32.9
 11
10
 21
32.9
  0
LINE
  8
0
 10
10
 20
32.9
 11
10
 21
30
  0
LINE
  8
0
 10
10
 20
30
 11
0
 21
30
  0
LINE
  8
0
 10
0
 20
30
 11
0
 21
0
  0
LINE
  8
0
 10
0
 20
0
 11
39.75
 21
0
  0
LINE
  8
0
 10
39.75
 20
0
 11
39.75
 21
15.5
  0
ENDSEC
  0
SECTION
  2
OBJECTS
  0
DICTIONARY
  0
ENDSEC
  0
EOF
