<?xml version="1.0" standalone="no"?>
<!DOCTYPE svg PUBLIC "-//W3C//DTD SVG 1.1//EN" "http://www.w3.org/Graphics/SVG/1.1/DTD/svg11.dtd">
<svg width="231" height="339" viewBox="0 -339 231 339" xmlns="http://www.w3.org/2000/svg" version="1.1">
<title>OpenSCAD Model</title>
<path d="
M 109.594,-108.254 L 109.524,-108.624 L 109.5,-109 L 109.524,-109.376 L 109.594,-109.746 L 109.711,-110.104
 L 109.871,-110.445 L 110.073,-110.763 L 110.313,-111.054 L 110.588,-111.312 L 110.893,-111.533 L 111.223,-111.714
 L 111.573,-111.853 L 111.938,-111.947 L 112.312,-111.994 L 112.688,-111.994 L 113.062,-111.947 L 113.427,-111.853
 L 113.777,-111.714 L 114.107,-111.533 L 114.412,-111.312 L 114.687,-111.054 L 114.927,-110.763 L 115.129,-110.445
 L 115.289,-110.104 L 115.406,-109.746 L 115.476,-109.376 L 115.5,-109 L 115.476,-108.624 L 115.406,-108.254
 L 115.323,-108 L 231,-108 L 231,-339 L 0,-339 L 0,-108 L 109.677,-108
 z
M 216,-296.25 L 216,-299.25 L 221.1,-299.25 L 221.1,-296.25 z
M 10,-296.25 L 10,-299.25 L 15.1,-299.25 L 15.1,-296.25 z
M 10,-279.75 L 10,-282.75 L 15.1,-282.75 L 15.1,-279.75 z
M 216,-279.75 L 216,-282.75 L 221.1,-282.75 L 221.1,-279.75 z
M 10,-263.25 L 10,-266.25 L 15.1,-266.25 L 15.1,-263.25 z
M 216,-263.25 L 216,-266.25 L 221.1,-266.25 L 221.1,-263.25 z
M 10,-246.75 L 10,-249.75 L 15.1,-249.75 L 15.1,-246.75 z
M 216,-246.75 L 216,-249.75 L 221.1,-249.75 L 221.1,-246.75 z
M 216,-230.25 L 216,-233.25 L 221.1,-233.25 L 221.1,-230.25 z
M 10,-230.25 L 10,-233.25 L 15.1,-233.25 L 15.1,-230.25 z
M 10,-213.75 L 10,-216.75 L 15.1,-216.75 L 15.1,-213.75 z
M 216,-213.75 L 216,-216.75 L 221.1,-216.75 L 221.1,-213.75 z
M 216,-197.25 L 216,-200.25 L 221.1,-200.25 L 221.1,-197.25 z
M 10,-197.25 L 10,-200.25 L 15.1,-200.25 L 15.1,-197.25 z
M 216,-180.75 L 216,-183.75 L 221.1,-183.75 L 221.1,-180.75 z
M 10,-180.75 L 10,-183.75 L 15.1,-183.75 L 15.1,-180.75 z
M 10,-164.25 L 10,-167.25 L 15.1,-167.25 L 15.1,-164.25 z
M 216,-164.25 L 216,-167.25 L 221.1,-167.25 L 221.1,-164.25 z
M 10,-147.75 L 10,-150.75 L 15.1,-150.75 L 15.1,-147.75 z
M 216,-147.75 L 216,-150.75 L 221.1,-150.75 L 221.1,-147.75 z
M 150.906,-136.503 L 150.719,-136.527 L 150.536,-136.573 L 150.361,-136.643 L 150.196,-136.734 L 150.044,-136.844
 L 149.907,-136.973 L 149.786,-137.118 L 149.686,-137.277 L 149.605,-137.448 L 149.547,-137.627 L 149.512,-137.812
 L 149.5,-138 L 149.512,-138.188 L 149.547,-138.373 L 149.605,-138.552 L 149.686,-138.723 L 149.786,-138.882
 L 149.907,-139.027 L 150.044,-139.156 L 150.196,-139.266 L 150.361,-139.357 L 150.536,-139.427 L 150.719,-139.473
 L 150.906,-139.497 L 151.094,-139.497 L 151.281,-139.473 L 151.464,-139.427 L 151.639,-139.357 L 151.804,-139.266
 L 151.956,-139.156 L 152.093,-139.027 L 152.214,-138.882 L 152.314,-138.723 L 152.395,-138.552 L 152.453,-138.373
 L 152.488,-138.188 L 152.5,-138 L 152.488,-137.812 L 152.453,-137.627 L 152.395,-137.448 L 152.314,-137.277
 L 152.214,-137.118 L 152.093,-136.973 L 151.956,-136.844 L 151.804,-136.734 L 151.639,-136.643 L 151.464,-136.573
 L 151.281,-136.527 L 151.094,-136.503 z
M 219.906,-136.503 L 219.719,-136.527 L 219.536,-136.573 L 219.361,-136.643 L 219.196,-136.734 L 219.044,-136.844
 L 218.907,-136.973 L 218.786,-137.118 L 218.686,-137.277 L 218.605,-137.448 L 218.547,-137.627 L 218.512,-137.812
 L 218.5,-138 L 218.512,-138.188 L 218.547,-138.373 L 218.605,-138.552 L 218.686,-138.723 L 218.786,-138.882
 L 218.907,-139.027 L 219.044,-139.156 L 219.196,-139.266 L 219.361,-139.357 L 219.536,-139.427 L 219.719,-139.473
 L 219.906,-139.497 L 220.094,-139.497 L 220.281,-139.473 L 220.464,-139.427 L 220.639,-139.357 L 220.804,-139.266
 L 220.956,-139.156 L 221.093,-139.027 L 221.214,-138.882 L 221.314,-138.723 L 221.395,-138.552 L 221.453,-138.373
 L 221.488,-138.188 L 221.5,-138 L 221.488,-137.812 L 221.453,-137.627 L 221.395,-137.448 L 221.314,-137.277
 L 221.214,-137.118 L 221.093,-136.973 L 220.956,-136.844 L 220.804,-136.734 L 220.639,-136.643 L 220.464,-136.573
 L 220.281,-136.527 L 220.094,-136.503 z
M 211.444,-134.654 L 211.195,-134.685 L 210.952,-134.748 L 210.718,-134.84 L 210.498,-134.961 L 210.295,-135.109
 L 210.112,-135.281 L 209.952,-135.474 L 209.817,-135.686 L 209.71,-135.914 L 209.633,-136.153 L 209.586,-136.399
 L 209.57,-136.65 L 209.586,-136.901 L 209.633,-137.147 L 209.71,-137.386 L 209.817,-137.613 L 209.952,-137.826
 L 210.112,-138.019 L 210.295,-138.191 L 210.498,-138.339 L 210.718,-138.46 L 210.952,-138.552 L 211.195,-138.615
 L 211.444,-138.646 L 211.696,-138.646 L 211.945,-138.615 L 212.188,-138.552 L 212.422,-138.46 L 212.642,-138.339
 L 212.845,-138.191 L 213.028,-138.019 L 213.188,-137.826 L 213.323,-137.613 L 213.43,-137.386 L 213.507,-137.147
 L 213.554,-136.901 L 213.57,-136.65 L 213.554,-136.399 L 213.507,-136.153 L 213.43,-135.914 L 213.323,-135.686
 L 213.188,-135.474 L 213.028,-135.281 L 212.845,-135.109 L 212.642,-134.961 L 212.422,-134.84 L 212.188,-134.748
 L 211.945,-134.685 L 211.696,-134.654 z
M 201.284,-134.654 L 201.035,-134.685 L 200.792,-134.748 L 200.558,-134.84 L 200.338,-134.961 L 200.135,-135.109
 L 199.952,-135.281 L 199.792,-135.474 L 199.657,-135.686 L 199.55,-135.914 L 199.473,-136.153 L 199.426,-136.399
 L 199.41,-136.65 L 199.426,-136.901 L 199.473,-137.147 L 199.55,-137.386 L 199.657,-137.613 L 199.792,-137.826
 L 199.952,-138.019 L 200.135,-138.191 L 200.338,-138.339 L 200.558,-138.46 L 200.792,-138.552 L 201.035,-138.615
 L 201.284,-138.646 L 201.536,-138.646 L 201.785,-138.615 L 202.028,-138.552 L 202.262,-138.46 L 202.482,-138.339
 L 202.685,-138.191 L 202.868,-138.019 L 203.028,-137.826 L 203.163,-137.613 L 203.27,-137.386 L 203.347,-137.147
 L 203.394,-136.901 L 203.41,-136.65 L 203.394,-136.399 L 203.347,-136.153 L 203.27,-135.914 L 203.163,-135.686
 L 203.028,-135.474 L 202.868,-135.281 L 202.685,-135.109 L 202.482,-134.961 L 202.262,-134.84 L 202.028,-134.748
 L 201.785,-134.685 L 201.536,-134.654 z
M 150.906,-112.503 L 150.719,-112.527 L 150.536,-112.573 L 150.361,-112.643 L 150.196,-112.734 L 150.044,-112.844
 L 149.907,-112.973 L 149.786,-113.118 L 149.686,-113.277 L 149.605,-113.448 L 149.547,-113.627 L 149.512,-113.812
 L 149.5,-114 L 149.512,-114.188 L 149.547,-114.373 L 149.605,-114.552 L 149.686,-114.723 L 149.786,-114.882
 L 149.907,-115.027 L 150.044,-115.156 L 150.196,-115.266 L 150.361,-115.357 L 150.536,-115.427 L 150.719,-115.473
 L 150.906,-115.497 L 151.094,-115.497 L 151.281,-115.473 L 151.464,-115.427 L 151.639,-115.357 L 151.804,-115.266
 L 151.956,-115.156 L 152.093,-115.027 L 152.214,-114.882 L 152.314,-114.723 L 152.395,-114.552 L 152.453,-114.373
 L 152.488,-114.188 L 152.5,-114 L 152.488,-113.812 L 152.453,-113.627 L 152.395,-113.448 L 152.314,-113.277
 L 152.214,-113.118 L 152.093,-112.973 L 151.956,-112.844 L 151.804,-112.734 L 151.639,-112.643 L 151.464,-112.573
 L 151.281,-112.527 L 151.094,-112.503 z
M 219.906,-112.503 L 219.719,-112.527 L 219.536,-112.573 L 219.361,-112.643 L 219.196,-112.734 L 219.044,-112.844
 L 218.907,-112.973 L 218.786,-113.118 L 218.686,-113.277 L 218.605,-113.448 L 218.547,-113.627 L 218.512,-113.812
 L 218.5,-114 L 218.512,-114.188 L 218.547,-114.373 L 218.605,-114.552 L 218.686,-114.723 L 218.786,-114.882
 L 218.907,-115.027 L 219.044,-115.156 L 219.196,-115.266 L 219.361,-115.357 L 219.536,-115.427 L 219.719,-115.473
 L 219.906,-115.497 L 220.094,-115.497 L 220.281,-115.473 L 220.464,-115.427 L 220.639,-115.357 L 220.804,-115.266
 L 220.956,-115.156 L 221.093,-115.027 L 221.214,-114.882 L 221.314,-114.723 L 221.395,-114.552 L 221.453,-114.373
 L 221.488,-114.188 L 221.5,-114 L 221.488,-113.812 L 221.453,-113.627 L 221.395,-113.448 L 221.314,-113.277
 L 221.214,-113.118 L 221.093,-112.973 L 220.956,-112.844 L 220.804,-112.734 L 220.639,-112.643 L 220.464,-112.573
 L 220.281,-112.527 L 220.094,-112.503 z
M 39.75,-87.5 L 42.75,-87.5 L 42.75,-72 L 56.25,-72 L 56.25,-87.5 L 59.25,-87.5
 L 59.25,-72 L 72.75,-72 L 72.75,-87.5 L 75.75,-87.5 L 75.75,-72 L 89.25,-72
 L 89.25,-87.5 L 92.25,-87.5 L 92.25,-72 L 105.75,-72 L 105.75,-87.5 L 108.75,-87.5
 L 108.75,-72 L 122.25,-72 L 122.25,-87.5 L 125.25,-87.5 L 125.25,-72 L 138.75,-72
 L 138.75,-87.5 L 141.75,-87.5 L 141.75,-72 L 155.25,-72 L 155.25,-87.5 L 158.25,-87.5
 L 158.25,-72 L 171.75,-72 L 171.75,-87.5 L 174.75,-87.5 L 174.75,-72 L 188.25,-72
 L 188.25,-87.5 L 191.25,-87.5 L 191.25,-72 L 231,-72 L 231,-102 L 0,-102
 L 0,-94 L 37,-94 L 37,-72 L 39.75,-72 z
M 39.75,-51.5 L 42.75,-51.5 L 42.75,-36 L 56.25,-36 L 56.25,-51.5 L 59.25,-51.5
 L 59.25,-36 L 72.75,-36 L 72.75,-51.5 L 75.75,-51.5 L 75.75,-36 L 89.25,-36
 L 89.25,-51.5 L 92.25,-51.5 L 92.25,-36 L 105.75,-36 L 105.75,-51.5 L 108.75,-51.5
 L 108.75,-36 L 122.25,-36 L 122.25,-51.5 L 125.25,-51.5 L 125.25,-36 L 138.75,-36
 L 138.75,-51.5 L 141.75,-51.5 L 141.75,-36 L 155.25,-36 L 155.25,-51.5 L 158.25,-51.5
 L 158.25,-36 L 171.75,-36 L 171.75,-51.5 L 174.75,-51.5 L 174.75,-36 L 188.25,-36
 L 188.25,-51.5 L 191.25,-51.5 L 191.25,-36 L 231,-36 L 231,-66 L 0,-66
 L 0,-36 L 39.75,-36 z
M 39.75,-15.5 L 42.75,-15.5 L 42.75,-0 L 56.25,-0 L 56.25,-15.5 L 59.25,-15.5
 L 59.25,-0 L 72.75,-0 L 72.75,-15.5 L 75.75,-15.5 L 75.75,-0 L 89.25,-0
 L 89.25,-15.5 L 92.25,-15.5 L 92.25,-0 L 105.75,-0 L 105.75,-15.5 L 108.75,-15.5
 L 108.75,-0 L 122.25,-0 L 122.25,-15.5 L 125.25,-15.5 L 125.25,-0 L 138.75,-0
 L 138.75,-15.5 L 141.75,-15.5 L 141.75,-0 L 155.25,-0 L 155.25,-15.5 L 158.25,-15.5
 L 158.25,-0 L 171.75,-0 L 171.75,-15.5 L 174.75,-15.5 L 174.75,-0 L 188.25,-0
 L 188.25,-15.5 L 191.25,-15.5 L 191.25,-0 L 231,-0 L 231,-30 L 221,-30
 L 221,-32.9 L 216,-32.9 L 216,-30 L 24.875,-30 L 24.875,-25 L 19.875,-25
 L 19.875,-30 L 15,-30 L 15,-32.9 L 10,-32.9 L 10,-30 L 0,-30
 L 0,-0 L 39.75,-0 z
" stroke="black" fill="lightgray" stroke-width="0.5"/></svg>
