<?xml version="1.0" encoding="utf-8"?>
<!-- Generator: Adobe Illustrator 18.0.0, SVG Export Plug-In . SVG Version: 6.00 Build 0)  -->
<!DOCTYPE svg PUBLIC "-//W3C//DTD SVG 1.1//EN" "http://www.w3.org/Graphics/SVG/1.1/DTD/svg11.dtd">
<svg version="1.1" id="Layer_1" xmlns="http://www.w3.org/2000/svg" xmlns:xlink="http://www.w3.org/1999/xlink" x="0px" y="0px"
	 viewBox="0 -367.9 687 964.9" enable-background="new 0 -367.9 687 964.9" xml:space="preserve">
<title>OpenSCAD Model</title>
<path fill="none" stroke="#FF0000" stroke-width="0.5" d="M317.5,333h17v17H652v-652H0v652h317.5V333z M610.9-183.5v-6h14.5v6H610.9
	z M26.9-183.5v-6h14.5v6H26.9z M26.9-136.7v-6h14.5v6H26.9z M610.9-136.7v-6h14.5v6H610.9z M26.9-90v-6h14.5v6H26.9z M610.9-90v-6
	h14.5v6H610.9z M610.9-43.2v-6h14.5v6H610.9z M26.9-43.2v-6h14.5v6H26.9z M610.9,3.6v-6h14.5v6H610.9z M26.9,3.6v-6h14.5v6H26.9z
	 M610.9,50.3v-6h14.5v6H610.9z M26.9,50.3v-6h14.5v6H26.9z M26.9,97.1v-6h14.5v6H26.9z M610.9,97.1v-6h14.5v6H610.9z M26.9,143.9v-6
	h14.5v6H26.9z M610.9,143.9v-6h14.5v6H610.9z M26.9,190.7v-6h14.5v6H26.9z M610.9,190.7v-6h14.5v6H610.9z M26.9,237.4v-6h14.5v6
	H26.9z M610.9,237.4v-6h14.5v6H610.9z M424.9,269.2l-0.5-0.1l-0.5-0.1l-0.5-0.2l-0.5-0.3l-0.4-0.3l-0.4-0.4l-0.3-0.4l-0.3-0.5
	l-0.2-0.5l-0.2-0.5l-0.1-0.5l0-0.5l0-0.5l0.1-0.5l0.2-0.5l0.2-0.5l0.3-0.5l0.3-0.4l0.4-0.4l0.4-0.3l0.5-0.3l0.5-0.2l0.5-0.1l0.5-0.1
	h0.5l0.5,0.1l0.5,0.1l0.5,0.2l0.5,0.3l0.4,0.3l0.4,0.4l0.3,0.4l0.3,0.5l0.2,0.5l0.2,0.5l0.1,0.5l0,0.5l0,0.5l-0.1,0.5l-0.2,0.5
	l-0.2,0.5l-0.3,0.5l-0.3,0.4l-0.4,0.4l-0.4,0.3l-0.5,0.3l-0.5,0.2l-0.5,0.1l-0.5,0.1H424.9z M620.5,269.2l-0.5-0.1l-0.5-0.1
	l-0.5-0.2l-0.5-0.3l-0.4-0.3l-0.4-0.4l-0.3-0.4l-0.3-0.5l-0.2-0.5l-0.2-0.5l-0.1-0.5l0-0.5l0-0.5l0.1-0.5l0.2-0.5l0.2-0.5l0.3-0.5
	l0.3-0.4l0.4-0.4l0.4-0.3l0.5-0.3l0.5-0.2l0.5-0.1l0.5-0.1h0.5l0.5,0.1l0.5,0.1l0.5,0.2l0.5,0.3l0.4,0.3l0.4,0.4l0.3,0.4l0.3,0.5
	l0.2,0.5l0.2,0.5l0.1,0.5l0,0.5l0,0.5l-0.1,0.5l-0.2,0.5l-0.2,0.5l-0.3,0.5l-0.3,0.4l-0.4,0.4l-0.4,0.3l-0.5,0.3l-0.5,0.2l-0.5,0.1
	l-0.5,0.1H620.5z M596.5,274.4l-0.7-0.1l-0.7-0.2l-0.7-0.3l-0.6-0.3l-0.6-0.4l-0.5-0.5l-0.5-0.5l-0.4-0.6l-0.3-0.6l-0.2-0.7
	l-0.1-0.7l0-0.7l0-0.7l0.1-0.7l0.2-0.7l0.3-0.6l0.4-0.6l0.5-0.5l0.5-0.5l0.6-0.4l0.6-0.3l0.7-0.3l0.7-0.2l0.7-0.1h0.7l0.7,0.1
	l0.7,0.2l0.7,0.3l0.6,0.3l0.6,0.4l0.5,0.5l0.5,0.5l0.4,0.6l0.3,0.6l0.2,0.7l0.1,0.7l0,0.7l0,0.7l-0.1,0.7l-0.2,0.7l-0.3,0.6
	l-0.4,0.6l-0.5,0.5l-0.5,0.5l-0.6,0.4l-0.6,0.3l-0.7,0.3l-0.7,0.2l-0.7,0.1H596.5z M567.7,274.4l-0.7-0.1l-0.7-0.2l-0.7-0.3
	l-0.6-0.3l-0.6-0.4l-0.5-0.5l-0.5-0.5l-0.4-0.6l-0.3-0.6l-0.2-0.7l-0.1-0.7l0-0.7l0-0.7l0.1-0.7l0.2-0.7l0.3-0.6l0.4-0.6l0.5-0.5
	l0.5-0.5l0.6-0.4l0.6-0.3l0.7-0.3l0.7-0.2l0.7-0.1h0.7l0.7,0.1l0.7,0.2l0.7,0.3l0.6,0.3l0.6,0.4l0.5,0.5l0.5,0.5l0.4,0.6l0.3,0.6
	l0.2,0.7l0.1,0.7l0,0.7l0,0.7l-0.1,0.7l-0.2,0.7l-0.3,0.6l-0.4,0.6l-0.5,0.5l-0.5,0.5l-0.6,0.4l-0.6,0.3l-0.7,0.3l-0.7,0.2l-0.7,0.1
	H567.7z M466.8,339.8v-56.7h11.3v56.7H466.8z M424.9,337.2l-0.5-0.1l-0.5-0.1l-0.5-0.2l-0.5-0.3l-0.4-0.3l-0.4-0.4l-0.3-0.4
	l-0.3-0.5l-0.2-0.5l-0.2-0.5l-0.1-0.5l0-0.5l0-0.5l0.1-0.5l0.2-0.5l0.2-0.5l0.3-0.5l0.3-0.4l0.4-0.4l0.4-0.3l0.5-0.3l0.5-0.2
	l0.5-0.1l0.5-0.1h0.5l0.5,0.1l0.5,0.1l0.5,0.2l0.5,0.3l0.4,0.3l0.4,0.4l0.3,0.4l0.3,0.5l0.2,0.5l0.2,0.5l0.1,0.5l0,0.5l0,0.5
	l-0.1,0.5l-0.2,0.5l-0.2,0.5l-0.3,0.5l-0.3,0.4l-0.4,0.4l-0.4,0.3l-0.5,0.3l-0.5,0.2l-0.5,0.1l-0.5,0.1H424.9z M620.5,337.2
	l-0.5-0.1l-0.5-0.1l-0.5-0.2l-0.5-0.3l-0.4-0.3l-0.4-0.4l-0.3-0.4l-0.3-0.5l-0.2-0.5l-0.2-0.5l-0.1-0.5l0-0.5l0-0.5l0.1-0.5l0.2-0.5
	l0.2-0.5l0.3-0.5l0.3-0.4l0.4-0.4l0.4-0.3l0.5-0.3l0.5-0.2l0.5-0.1l0.5-0.1h0.5l0.5,0.1l0.5,0.1l0.5,0.2l0.5,0.3l0.4,0.3l0.4,0.4
	l0.3,0.4l0.3,0.5l0.2,0.5l0.2,0.5l0.1,0.5l0,0.5l0,0.5l-0.1,0.5l-0.2,0.5l-0.2,0.5l-0.3,0.5l-0.3,0.4l-0.4,0.4l-0.4,0.3l-0.5,0.3
	l-0.5,0.2l-0.5,0.1l-0.5,0.1H620.5z M114,408.1h6V452h40.8v-43.9h6V452h40.8v-43.9h6V452h40.8v-43.9h6V452H301v-43.9h6V452h40.8
	v-43.9h6V452h40.8v-43.9h6V452h40.8v-43.9h6V452h40.8v-43.9h6V452h40.8v-43.9h6V452h114v-85H0v22.7h104.9V452h9.1V408.1z M114,510.1
	h6v43.9h40.8v-43.9h6v43.9h40.8v-43.9h6v43.9h40.8v-43.9h6v43.9H301v-43.9h6v43.9h40.8v-43.9h6v43.9h40.8v-43.9h6v43.9h40.8v-43.9h6
	v43.9h40.8v-43.9h6v43.9h40.8v-43.9h6v43.9h114v-85h-28.3v-5.7h-14.2v5.7H71.1v14.2H57V469H42.5v-5.7H28.3v5.7H0v85h114V510.1z"/>
<g>
	<path d="M578.4,292.9c-0.1,0.4-0.5,1.1-1.2,1.8c-1.6,1.6-3.8,1.8-5.7-0.1c-1.8-1.8-1.8-4.2,0-6c0.7-0.7,1.3-1,1.6-1.1l0.4,0.8
		c-0.4,0.1-0.9,0.4-1.4,0.9c-1.3,1.3-1.4,3.1,0.1,4.6c1.4,1.4,3.1,1.5,4.5,0.1c0.4-0.4,0.8-1,1-1.4L578.4,292.9z"/>
	<path d="M581,286.5c1.5,1.5,1.1,3.2,0.1,4.2c-1.1,1.1-2.8,1.2-4.1-0.1c-1.4-1.4-1.3-3.1-0.1-4.2C578.1,285.2,579.7,285.3,581,286.5
		z M577.8,289.8c0.9,0.9,2.1,1.1,2.8,0.3c0.7-0.7,0.6-1.9-0.3-2.8c-0.7-0.7-1.9-1.2-2.8-0.3C576.6,287.8,577,289,577.8,289.8z"/>
	<path d="M578,281.6l0.7-0.7l6,6l-0.7,0.7L578,281.6z"/>
	<path d="M587.6,279.9c1.5,1.5,1.1,3.2,0.1,4.2c-1.1,1.1-2.8,1.2-4.1-0.1c-1.4-1.4-1.3-3.1-0.1-4.2
		C584.7,278.5,586.4,278.6,587.6,279.9z M584.4,283.1c0.9,0.9,2.1,1.1,2.8,0.3c0.7-0.7,0.6-1.9-0.3-2.8c-0.7-0.7-1.9-1.2-2.8-0.3
		C583.2,281.2,583.6,282.4,584.4,283.1z"/>
	<path d="M587.9,278.2c-0.5-0.5-0.9-0.9-1.3-1.2l0.7-0.7l0.8,0.8l0,0c-0.4-0.7-0.3-1.5,0.2-2c0.1-0.1,0.2-0.1,0.2-0.2l0.7,0.7
		c-0.1,0.1-0.2,0.1-0.3,0.2c-0.5,0.5-0.5,1.3,0,2c0.1,0.1,0.2,0.3,0.3,0.4l2.2,2.2l-0.7,0.7L587.9,278.2z"/>
</g>
<g>
	<path d="M543.2,289.4l-1.7,1.7l-0.6-0.6l4.2-4.2l0.6,0.6l-1.7,1.7l5.1,5.1l-0.7,0.7L543.2,289.4z"/>
	<path d="M546.9,285.4c0.3,0.2,0.3,0.6,0,0.9c-0.3,0.3-0.7,0.2-0.9,0c-0.3-0.3-0.3-0.7,0-0.9C546.3,285.2,546.6,285.2,546.9,285.4z
		 M551.3,291.5l-4.1-4.1l0.7-0.7l4.1,4.1L551.3,291.5z"/>
	<path d="M550.3,286.6c-0.4-0.4-0.8-0.8-1.1-1.1l0.7-0.7l0.7,0.6l0,0c-0.2-0.6-0.1-1.4,0.5-2c0.6-0.6,1.3-0.6,2-0.3l0,0
		c-0.1-0.4-0.1-0.7-0.1-1c0.1-0.4,0.2-0.8,0.6-1.2c0.5-0.5,1.7-1,3.1,0.4l2.4,2.4l-0.7,0.7l-2.3-2.3c-0.8-0.8-1.6-1-2.2-0.4
		c-0.4,0.4-0.4,1.1-0.2,1.6c0.1,0.1,0.2,0.3,0.3,0.4l2.5,2.5l-0.7,0.7l-2.5-2.5c-0.7-0.7-1.4-0.8-2-0.3c-0.5,0.5-0.4,1.2-0.2,1.7
		c0.1,0.2,0.2,0.3,0.3,0.4l2.5,2.5l-0.7,0.7L550.3,286.6z"/>
	<path d="M558.9,280.1c1,1,2.1,0.8,2.8,0c0.5-0.5,0.8-0.9,0.9-1.3l0.7,0.4c-0.1,0.4-0.5,1-1.1,1.6c-1.3,1.3-2.8,1.2-4.1-0.1
		s-1.5-2.9-0.3-4.1c1.3-1.3,2.9-0.5,3.6,0.2c0.2,0.2,0.3,0.3,0.3,0.4L558.9,280.1z M560.6,277.4c-0.5-0.5-1.4-1-2.2-0.2
		c-0.8,0.8-0.4,1.8,0.1,2.4L560.6,277.4z"/>
</g>
<g>
	<g>
		<path d="M463.3,272.3c0.5-0.1,1.2-0.2,1.9-0.2c1,0,1.7,0.2,2.2,0.6c0.4,0.3,0.7,0.8,0.7,1.4c0,0.8-0.5,1.5-1.4,1.8v0
			c0.8,0.2,1.7,0.8,1.7,2c0,0.7-0.3,1.2-0.7,1.6c-0.6,0.5-1.5,0.8-2.8,0.8c-0.7,0-1.3,0-1.6-0.1V272.3z M464.3,275.7h0.9
			c1.1,0,1.8-0.6,1.8-1.4c0-0.9-0.7-1.3-1.8-1.3c-0.5,0-0.8,0-0.9,0.1V275.7z M464.3,279.5c0.2,0,0.5,0,0.9,0c1.1,0,2.1-0.4,2.1-1.6
			c0-1.1-0.9-1.6-2.1-1.6h-0.9V279.5z"/>
		<path d="M469.8,272.2h1v7.2h3.5v0.9h-4.5V272.2z"/>
		<path d="M475.4,272.2h1v3.9h0c0.2-0.3,0.4-0.6,0.6-0.9l2.5-3h1.3l-2.9,3.4l3.2,4.7h-1.2l-2.7-4l-0.8,0.9v3.1h-1V272.2z"/>
	</g>
</g>
</svg>
